M48
; DRILL file {KiCad 7.0.1} date Fri 18 Aug 2023 06:47:52 PM +06
; FORMAT={-:-/ absolute / inch / decimal}
; #@! TF.CreationDate,2023-08-18T18:47:52+06:00
; #@! TF.GenerationSoftware,Kicad,Pcbnew,7.0.1
; #@! TF.FileFunction,NonPlated,1,2,NPTH
FMAT,2
INCH
; #@! TA.AperFunction,NonPlated,NPTH,ComponentDrill
T1C0.0354
; #@! TA.AperFunction,NonPlated,NPTH,ComponentDrill
T2C0.0472
; #@! TA.AperFunction,NonPlated,NPTH,ComponentDrill
T3C0.0669
; #@! TA.AperFunction,NonPlated,NPTH,ComponentDrill
T4C0.1339
%
G90
G05
T1
X6.9913Y-3.6417
X6.9913Y-3.6417
X6.9913Y-3.7598
X6.9913Y-3.7598
T2
X2.8843Y-2.2705
X2.8846Y-2.9398
X2.8846Y-3.6091
X3.2953Y-2.2705
X3.2957Y-2.9398
X3.2957Y-3.6091
X3.5937Y-2.0787
X3.5937Y-2.748
X3.5937Y-3.4173
X4.0047Y-2.0787
X4.0047Y-2.748
X4.0047Y-3.4173
X4.3024Y-1.9213
X4.3024Y-2.5906
X4.3024Y-3.2598
X4.5469Y-4.2492
X4.7134Y-1.9213
X4.7134Y-2.5906
X4.7134Y-3.2598
X4.9579Y-4.2492
X5.011Y-2.0787
X5.011Y-2.748
X5.011Y-3.4173
X5.422Y-2.0787
X5.422Y-2.748
X5.422Y-3.4173
X5.6222Y-4.3118
X5.7197Y-2.1575
X5.7197Y-2.8268
X5.7197Y-3.4961
X6.0234Y-4.4008
X6.1307Y-2.1575
X6.1307Y-2.8268
X6.1307Y-3.4961
X6.6658Y-5.0091
X6.7283Y-2.9281
X6.7283Y-2.997
X6.8064Y-4.6229
X7.0039Y-2.9281
X7.0039Y-2.997
T3
X2.8732Y-2.4358
X2.8736Y-3.1051
X2.8736Y-3.7744
X3.3063Y-2.4358
X3.3067Y-3.1051
X3.3067Y-3.7744
X3.5827Y-2.2441
X3.5827Y-2.9134
X3.5827Y-3.5827
X4.0157Y-2.2441
X4.0157Y-2.9134
X4.0157Y-3.5827
X4.2913Y-2.0866
X4.2913Y-2.7559
X4.2913Y-3.4252
X4.5358Y-4.4146
X4.7244Y-2.0866
X4.7244Y-2.7559
X4.7244Y-3.4252
X4.9689Y-4.4146
X5.0Y-2.2441
X5.0Y-2.9134
X5.0Y-3.5827
X5.4331Y-2.2441
X5.4331Y-2.9134
X5.4331Y-3.5827
X5.5756Y-4.4708
X5.7087Y-2.3228
X5.7087Y-2.9921
X5.7087Y-3.6614
X5.9984Y-4.5646
X6.1417Y-2.3228
X6.1417Y-2.9921
X6.1417Y-3.6614
X6.5066Y-4.9629
X6.6548Y-4.556
T4
X3.0898Y-2.4358
X3.0902Y-3.1051
X3.0902Y-3.7744
X3.7992Y-2.2441
X3.7992Y-2.9134
X3.7992Y-3.5827
X4.5079Y-2.0866
X4.5079Y-2.7559
X4.5079Y-3.4252
X4.7524Y-4.4146
X5.2165Y-2.2441
X5.2165Y-2.9134
X5.2165Y-3.5827
X5.787Y-4.5177
X5.9252Y-2.3228
X5.9252Y-2.9921
X5.9252Y-3.6614
X6.5807Y-4.7594
T0
M30
