%TF.GenerationSoftware,KiCad,Pcbnew,7.0.1*%
%TF.CreationDate,2023-08-18T18:47:56+06:00*%
%TF.ProjectId,pcb,7063622e-6b69-4636-9164-5f7063625858,rev?*%
%TF.SameCoordinates,Original*%
%TF.FileFunction,Legend,Bot*%
%TF.FilePolarity,Positive*%
%FSLAX46Y46*%
G04 Gerber Fmt 4.6, Leading zero omitted, Abs format (unit mm)*
G04 Created by KiCad (PCBNEW 7.0.1) date 2023-08-18 18:47:56*
%MOMM*%
%LPD*%
G01*
G04 APERTURE LIST*
G04 Aperture macros list*
%AMRoundRect*
0 Rectangle with rounded corners*
0 $1 Rounding radius*
0 $2 $3 $4 $5 $6 $7 $8 $9 X,Y pos of 4 corners*
0 Add a 4 corners polygon primitive as box body*
4,1,4,$2,$3,$4,$5,$6,$7,$8,$9,$2,$3,0*
0 Add four circle primitives for the rounded corners*
1,1,$1+$1,$2,$3*
1,1,$1+$1,$4,$5*
1,1,$1+$1,$6,$7*
1,1,$1+$1,$8,$9*
0 Add four rect primitives between the rounded corners*
20,1,$1+$1,$2,$3,$4,$5,0*
20,1,$1+$1,$4,$5,$6,$7,0*
20,1,$1+$1,$6,$7,$8,$9,0*
20,1,$1+$1,$8,$9,$2,$3,0*%
G04 Aperture macros list end*
%ADD10C,0.150000*%
%ADD11C,0.500000*%
%ADD12C,1.700000*%
%ADD13C,3.400000*%
%ADD14C,2.000000*%
%ADD15R,1.300000X0.950000*%
%ADD16C,1.200000*%
%ADD17O,2.500000X1.700000*%
%ADD18RoundRect,0.250000X0.350000X0.625000X-0.350000X0.625000X-0.350000X-0.625000X0.350000X-0.625000X0*%
%ADD19O,1.200000X1.750000*%
%ADD20C,0.900000*%
%ADD21C,1.397000*%
%ADD22R,0.800000X1.000000*%
%ADD23R,1.500000X0.700000*%
%ADD24O,2.750000X1.800000*%
G04 APERTURE END LIST*
D10*
X179287380Y-100702380D02*
X179287380Y-100511904D01*
X179287380Y-100511904D02*
X179239761Y-100416666D01*
X179239761Y-100416666D02*
X179144523Y-100321428D01*
X179144523Y-100321428D02*
X178954047Y-100273809D01*
X178954047Y-100273809D02*
X178620714Y-100273809D01*
X178620714Y-100273809D02*
X178430238Y-100321428D01*
X178430238Y-100321428D02*
X178335000Y-100416666D01*
X178335000Y-100416666D02*
X178287380Y-100511904D01*
X178287380Y-100511904D02*
X178287380Y-100702380D01*
X178287380Y-100702380D02*
X178335000Y-100797618D01*
X178335000Y-100797618D02*
X178430238Y-100892856D01*
X178430238Y-100892856D02*
X178620714Y-100940475D01*
X178620714Y-100940475D02*
X178954047Y-100940475D01*
X178954047Y-100940475D02*
X179144523Y-100892856D01*
X179144523Y-100892856D02*
X179239761Y-100797618D01*
X179239761Y-100797618D02*
X179287380Y-100702380D01*
X178811190Y-99511904D02*
X178811190Y-99845237D01*
X178287380Y-99845237D02*
X179287380Y-99845237D01*
X179287380Y-99845237D02*
X179287380Y-99369047D01*
X178811190Y-98654761D02*
X178811190Y-98988094D01*
X178287380Y-98988094D02*
X179287380Y-98988094D01*
X179287380Y-98988094D02*
X179287380Y-98511904D01*
X165295952Y-70142857D02*
X165962619Y-70333333D01*
X165962619Y-70333333D02*
X165486428Y-70523809D01*
X165486428Y-70523809D02*
X165962619Y-70714285D01*
X165962619Y-70714285D02*
X165295952Y-70904761D01*
X165962619Y-71285714D02*
X165295952Y-71285714D01*
X164962619Y-71285714D02*
X165010238Y-71238095D01*
X165010238Y-71238095D02*
X165057857Y-71285714D01*
X165057857Y-71285714D02*
X165010238Y-71333333D01*
X165010238Y-71333333D02*
X164962619Y-71285714D01*
X164962619Y-71285714D02*
X165057857Y-71285714D01*
X165962619Y-71761904D02*
X165295952Y-71761904D01*
X165486428Y-71761904D02*
X165391190Y-71809523D01*
X165391190Y-71809523D02*
X165343571Y-71857142D01*
X165343571Y-71857142D02*
X165295952Y-71952380D01*
X165295952Y-71952380D02*
X165295952Y-72047618D01*
X165915000Y-72761904D02*
X165962619Y-72666666D01*
X165962619Y-72666666D02*
X165962619Y-72476190D01*
X165962619Y-72476190D02*
X165915000Y-72380952D01*
X165915000Y-72380952D02*
X165819761Y-72333333D01*
X165819761Y-72333333D02*
X165438809Y-72333333D01*
X165438809Y-72333333D02*
X165343571Y-72380952D01*
X165343571Y-72380952D02*
X165295952Y-72476190D01*
X165295952Y-72476190D02*
X165295952Y-72666666D01*
X165295952Y-72666666D02*
X165343571Y-72761904D01*
X165343571Y-72761904D02*
X165438809Y-72809523D01*
X165438809Y-72809523D02*
X165534047Y-72809523D01*
X165534047Y-72809523D02*
X165629285Y-72333333D01*
X165962619Y-73380952D02*
X165915000Y-73285714D01*
X165915000Y-73285714D02*
X165819761Y-73238095D01*
X165819761Y-73238095D02*
X164962619Y-73238095D01*
X165915000Y-74142857D02*
X165962619Y-74047619D01*
X165962619Y-74047619D02*
X165962619Y-73857143D01*
X165962619Y-73857143D02*
X165915000Y-73761905D01*
X165915000Y-73761905D02*
X165819761Y-73714286D01*
X165819761Y-73714286D02*
X165438809Y-73714286D01*
X165438809Y-73714286D02*
X165343571Y-73761905D01*
X165343571Y-73761905D02*
X165295952Y-73857143D01*
X165295952Y-73857143D02*
X165295952Y-74047619D01*
X165295952Y-74047619D02*
X165343571Y-74142857D01*
X165343571Y-74142857D02*
X165438809Y-74190476D01*
X165438809Y-74190476D02*
X165534047Y-74190476D01*
X165534047Y-74190476D02*
X165629285Y-73714286D01*
X165915000Y-74571429D02*
X165962619Y-74666667D01*
X165962619Y-74666667D02*
X165962619Y-74857143D01*
X165962619Y-74857143D02*
X165915000Y-74952381D01*
X165915000Y-74952381D02*
X165819761Y-75000000D01*
X165819761Y-75000000D02*
X165772142Y-75000000D01*
X165772142Y-75000000D02*
X165676904Y-74952381D01*
X165676904Y-74952381D02*
X165629285Y-74857143D01*
X165629285Y-74857143D02*
X165629285Y-74714286D01*
X165629285Y-74714286D02*
X165581666Y-74619048D01*
X165581666Y-74619048D02*
X165486428Y-74571429D01*
X165486428Y-74571429D02*
X165438809Y-74571429D01*
X165438809Y-74571429D02*
X165343571Y-74619048D01*
X165343571Y-74619048D02*
X165295952Y-74714286D01*
X165295952Y-74714286D02*
X165295952Y-74857143D01*
X165295952Y-74857143D02*
X165343571Y-74952381D01*
X165915000Y-75380953D02*
X165962619Y-75476191D01*
X165962619Y-75476191D02*
X165962619Y-75666667D01*
X165962619Y-75666667D02*
X165915000Y-75761905D01*
X165915000Y-75761905D02*
X165819761Y-75809524D01*
X165819761Y-75809524D02*
X165772142Y-75809524D01*
X165772142Y-75809524D02*
X165676904Y-75761905D01*
X165676904Y-75761905D02*
X165629285Y-75666667D01*
X165629285Y-75666667D02*
X165629285Y-75523810D01*
X165629285Y-75523810D02*
X165581666Y-75428572D01*
X165581666Y-75428572D02*
X165486428Y-75380953D01*
X165486428Y-75380953D02*
X165438809Y-75380953D01*
X165438809Y-75380953D02*
X165343571Y-75428572D01*
X165343571Y-75428572D02*
X165295952Y-75523810D01*
X165295952Y-75523810D02*
X165295952Y-75666667D01*
X165295952Y-75666667D02*
X165343571Y-75761905D01*
X117938809Y-100952381D02*
X117986428Y-101095238D01*
X117986428Y-101095238D02*
X118034047Y-101142857D01*
X118034047Y-101142857D02*
X118129285Y-101190476D01*
X118129285Y-101190476D02*
X118272142Y-101190476D01*
X118272142Y-101190476D02*
X118367380Y-101142857D01*
X118367380Y-101142857D02*
X118415000Y-101095238D01*
X118415000Y-101095238D02*
X118462619Y-101000000D01*
X118462619Y-101000000D02*
X118462619Y-100619048D01*
X118462619Y-100619048D02*
X117462619Y-100619048D01*
X117462619Y-100619048D02*
X117462619Y-100952381D01*
X117462619Y-100952381D02*
X117510238Y-101047619D01*
X117510238Y-101047619D02*
X117557857Y-101095238D01*
X117557857Y-101095238D02*
X117653095Y-101142857D01*
X117653095Y-101142857D02*
X117748333Y-101142857D01*
X117748333Y-101142857D02*
X117843571Y-101095238D01*
X117843571Y-101095238D02*
X117891190Y-101047619D01*
X117891190Y-101047619D02*
X117938809Y-100952381D01*
X117938809Y-100952381D02*
X117938809Y-100619048D01*
X118081666Y-101619048D02*
X118081666Y-102380953D01*
X118462619Y-102000000D02*
X117700714Y-102000000D01*
X167347618Y-59638809D02*
X167204761Y-59686428D01*
X167204761Y-59686428D02*
X167157142Y-59734047D01*
X167157142Y-59734047D02*
X167109523Y-59829285D01*
X167109523Y-59829285D02*
X167109523Y-59972142D01*
X167109523Y-59972142D02*
X167157142Y-60067380D01*
X167157142Y-60067380D02*
X167204761Y-60115000D01*
X167204761Y-60115000D02*
X167299999Y-60162619D01*
X167299999Y-60162619D02*
X167680951Y-60162619D01*
X167680951Y-60162619D02*
X167680951Y-59162619D01*
X167680951Y-59162619D02*
X167347618Y-59162619D01*
X167347618Y-59162619D02*
X167252380Y-59210238D01*
X167252380Y-59210238D02*
X167204761Y-59257857D01*
X167204761Y-59257857D02*
X167157142Y-59353095D01*
X167157142Y-59353095D02*
X167157142Y-59448333D01*
X167157142Y-59448333D02*
X167204761Y-59543571D01*
X167204761Y-59543571D02*
X167252380Y-59591190D01*
X167252380Y-59591190D02*
X167347618Y-59638809D01*
X167347618Y-59638809D02*
X167680951Y-59638809D01*
X166680951Y-59781666D02*
X165919047Y-59781666D01*
X166299999Y-60162619D02*
X166299999Y-59400714D01*
X167347618Y-57638809D02*
X167204761Y-57686428D01*
X167204761Y-57686428D02*
X167157142Y-57734047D01*
X167157142Y-57734047D02*
X167109523Y-57829285D01*
X167109523Y-57829285D02*
X167109523Y-57972142D01*
X167109523Y-57972142D02*
X167157142Y-58067380D01*
X167157142Y-58067380D02*
X167204761Y-58115000D01*
X167204761Y-58115000D02*
X167299999Y-58162619D01*
X167299999Y-58162619D02*
X167680951Y-58162619D01*
X167680951Y-58162619D02*
X167680951Y-57162619D01*
X167680951Y-57162619D02*
X167347618Y-57162619D01*
X167347618Y-57162619D02*
X167252380Y-57210238D01*
X167252380Y-57210238D02*
X167204761Y-57257857D01*
X167204761Y-57257857D02*
X167157142Y-57353095D01*
X167157142Y-57353095D02*
X167157142Y-57448333D01*
X167157142Y-57448333D02*
X167204761Y-57543571D01*
X167204761Y-57543571D02*
X167252380Y-57591190D01*
X167252380Y-57591190D02*
X167347618Y-57638809D01*
X167347618Y-57638809D02*
X167680951Y-57638809D01*
X166680951Y-57781666D02*
X165919047Y-57781666D01*
X177438809Y-84202381D02*
X177486428Y-84345238D01*
X177486428Y-84345238D02*
X177534047Y-84392857D01*
X177534047Y-84392857D02*
X177629285Y-84440476D01*
X177629285Y-84440476D02*
X177772142Y-84440476D01*
X177772142Y-84440476D02*
X177867380Y-84392857D01*
X177867380Y-84392857D02*
X177915000Y-84345238D01*
X177915000Y-84345238D02*
X177962619Y-84250000D01*
X177962619Y-84250000D02*
X177962619Y-83869048D01*
X177962619Y-83869048D02*
X176962619Y-83869048D01*
X176962619Y-83869048D02*
X176962619Y-84202381D01*
X176962619Y-84202381D02*
X177010238Y-84297619D01*
X177010238Y-84297619D02*
X177057857Y-84345238D01*
X177057857Y-84345238D02*
X177153095Y-84392857D01*
X177153095Y-84392857D02*
X177248333Y-84392857D01*
X177248333Y-84392857D02*
X177343571Y-84345238D01*
X177343571Y-84345238D02*
X177391190Y-84297619D01*
X177391190Y-84297619D02*
X177438809Y-84202381D01*
X177438809Y-84202381D02*
X177438809Y-83869048D01*
X177581666Y-84869048D02*
X177581666Y-85630953D01*
X177962619Y-85250000D02*
X177200714Y-85250000D01*
X129500000Y-83000000D02*
X129500000Y-82000000D01*
X129400000Y-82500000D02*
X128500000Y-83000000D01*
X128500000Y-83000000D02*
X128500000Y-82000000D01*
X128500000Y-82000000D02*
X129400000Y-82500000D01*
X154500000Y-68000000D02*
X154500000Y-67000000D01*
X154400000Y-67500000D02*
X153500000Y-68000000D01*
X153500000Y-68000000D02*
X153500000Y-67000000D01*
X153500000Y-67000000D02*
X154400000Y-67500000D01*
X147500000Y-68000000D02*
X147500000Y-67000000D01*
X147400000Y-67500000D02*
X146500000Y-68000000D01*
X146500000Y-68000000D02*
X146500000Y-67000000D01*
X146500000Y-67000000D02*
X147400000Y-67500000D01*
X154500000Y-102000000D02*
X154500000Y-101000000D01*
X154400000Y-101500000D02*
X153500000Y-102000000D01*
X153500000Y-102000000D02*
X153500000Y-101000000D01*
X153500000Y-101000000D02*
X154400000Y-101500000D01*
X136500000Y-100000000D02*
X136500000Y-99000000D01*
X136400000Y-99500000D02*
X135500000Y-100000000D01*
X135500000Y-100000000D02*
X135500000Y-99000000D01*
X135500000Y-99000000D02*
X136400000Y-99500000D01*
X151080000Y-84940000D02*
X151080000Y-83940000D01*
X150980000Y-84440000D02*
X150080000Y-84940000D01*
X150080000Y-84940000D02*
X150080000Y-83940000D01*
X150080000Y-83940000D02*
X150980000Y-84440000D01*
X147500000Y-102000000D02*
X147500000Y-101000000D01*
X147400000Y-101500000D02*
X146500000Y-102000000D01*
X146500000Y-102000000D02*
X146500000Y-101000000D01*
X146500000Y-101000000D02*
X147400000Y-101500000D01*
X123500000Y-104500000D02*
X123500000Y-103500000D01*
X123400000Y-104000000D02*
X122500000Y-104500000D01*
X122500000Y-104500000D02*
X122500000Y-103500000D01*
X122500000Y-103500000D02*
X123400000Y-104000000D01*
X111500000Y-96000000D02*
X111500000Y-95000000D01*
X111400000Y-95500000D02*
X110500000Y-96000000D01*
X110500000Y-96000000D02*
X110500000Y-95000000D01*
X110500000Y-95000000D02*
X111400000Y-95500000D01*
X111500000Y-62000000D02*
X111500000Y-61000000D01*
X111400000Y-61500000D02*
X110500000Y-62000000D01*
X110500000Y-62000000D02*
X110500000Y-61000000D01*
X110500000Y-61000000D02*
X111400000Y-61500000D01*
X118500000Y-96000000D02*
X118500000Y-95000000D01*
X118400000Y-95500000D02*
X117500000Y-96000000D01*
X117500000Y-96000000D02*
X117500000Y-95000000D01*
X117500000Y-95000000D02*
X118400000Y-95500000D01*
X118500000Y-62000000D02*
X118500000Y-61000000D01*
X118400000Y-61500000D02*
X117500000Y-62000000D01*
X117500000Y-62000000D02*
X117500000Y-61000000D01*
X117500000Y-61000000D02*
X118400000Y-61500000D01*
X129500000Y-100000000D02*
X129500000Y-99000000D01*
X129400000Y-99500000D02*
X128500000Y-100000000D01*
X128500000Y-100000000D02*
X128500000Y-99000000D01*
X128500000Y-99000000D02*
X129400000Y-99500000D01*
X82500000Y-87000000D02*
X82500000Y-86000000D01*
X82400000Y-86500000D02*
X81500000Y-87000000D01*
X81500000Y-87000000D02*
X81500000Y-86000000D01*
X81500000Y-86000000D02*
X82400000Y-86500000D01*
X75500000Y-87000000D02*
X75500000Y-86000000D01*
X75400000Y-86500000D02*
X74500000Y-87000000D01*
X74500000Y-87000000D02*
X74500000Y-86000000D01*
X74500000Y-86000000D02*
X75400000Y-86500000D01*
X100500000Y-66000000D02*
X100500000Y-65000000D01*
X100400000Y-65500000D02*
X99500000Y-66000000D01*
X99500000Y-66000000D02*
X99500000Y-65000000D01*
X99500000Y-65000000D02*
X100400000Y-65500000D01*
X93500000Y-66000000D02*
X93500000Y-65000000D01*
X93400000Y-65500000D02*
X92500000Y-66000000D01*
X92500000Y-66000000D02*
X92500000Y-65000000D01*
X92500000Y-65000000D02*
X93400000Y-65500000D01*
X136500000Y-83000000D02*
X136500000Y-82000000D01*
X136400000Y-82500000D02*
X135500000Y-83000000D01*
X135500000Y-83000000D02*
X135500000Y-82000000D01*
X135500000Y-82000000D02*
X136400000Y-82500000D01*
%LPC*%
D11*
X167210000Y-90225000D02*
X165540000Y-88075000D01*
X167210000Y-90225000D02*
X167210000Y-86325000D01*
X165540000Y-88075000D02*
X169140000Y-88045000D01*
X168240000Y-90245000D02*
X168240000Y-86345000D01*
D10*
X85589523Y-53140000D02*
X85446666Y-53187619D01*
X85446666Y-53187619D02*
X85208571Y-53187619D01*
X85208571Y-53187619D02*
X85113333Y-53140000D01*
X85113333Y-53140000D02*
X85065714Y-53092380D01*
X85065714Y-53092380D02*
X85018095Y-52997142D01*
X85018095Y-52997142D02*
X85018095Y-52901904D01*
X85018095Y-52901904D02*
X85065714Y-52806666D01*
X85065714Y-52806666D02*
X85113333Y-52759047D01*
X85113333Y-52759047D02*
X85208571Y-52711428D01*
X85208571Y-52711428D02*
X85399047Y-52663809D01*
X85399047Y-52663809D02*
X85494285Y-52616190D01*
X85494285Y-52616190D02*
X85541904Y-52568571D01*
X85541904Y-52568571D02*
X85589523Y-52473333D01*
X85589523Y-52473333D02*
X85589523Y-52378095D01*
X85589523Y-52378095D02*
X85541904Y-52282857D01*
X85541904Y-52282857D02*
X85494285Y-52235238D01*
X85494285Y-52235238D02*
X85399047Y-52187619D01*
X85399047Y-52187619D02*
X85160952Y-52187619D01*
X85160952Y-52187619D02*
X85018095Y-52235238D01*
X84589523Y-53187619D02*
X84589523Y-52187619D01*
X84589523Y-52663809D02*
X84018095Y-52663809D01*
X84018095Y-53187619D02*
X84018095Y-52187619D01*
X83351428Y-52187619D02*
X83160952Y-52187619D01*
X83160952Y-52187619D02*
X83065714Y-52235238D01*
X83065714Y-52235238D02*
X82970476Y-52330476D01*
X82970476Y-52330476D02*
X82922857Y-52520952D01*
X82922857Y-52520952D02*
X82922857Y-52854285D01*
X82922857Y-52854285D02*
X82970476Y-53044761D01*
X82970476Y-53044761D02*
X83065714Y-53140000D01*
X83065714Y-53140000D02*
X83160952Y-53187619D01*
X83160952Y-53187619D02*
X83351428Y-53187619D01*
X83351428Y-53187619D02*
X83446666Y-53140000D01*
X83446666Y-53140000D02*
X83541904Y-53044761D01*
X83541904Y-53044761D02*
X83589523Y-52854285D01*
X83589523Y-52854285D02*
X83589523Y-52520952D01*
X83589523Y-52520952D02*
X83541904Y-52330476D01*
X83541904Y-52330476D02*
X83446666Y-52235238D01*
X83446666Y-52235238D02*
X83351428Y-52187619D01*
X81732380Y-53187619D02*
X81732380Y-52187619D01*
X81732380Y-52568571D02*
X81637142Y-52520952D01*
X81637142Y-52520952D02*
X81446666Y-52520952D01*
X81446666Y-52520952D02*
X81351428Y-52568571D01*
X81351428Y-52568571D02*
X81303809Y-52616190D01*
X81303809Y-52616190D02*
X81256190Y-52711428D01*
X81256190Y-52711428D02*
X81256190Y-52997142D01*
X81256190Y-52997142D02*
X81303809Y-53092380D01*
X81303809Y-53092380D02*
X81351428Y-53140000D01*
X81351428Y-53140000D02*
X81446666Y-53187619D01*
X81446666Y-53187619D02*
X81637142Y-53187619D01*
X81637142Y-53187619D02*
X81732380Y-53140000D01*
X80922856Y-52520952D02*
X80684761Y-53187619D01*
X80446666Y-52520952D02*
X80684761Y-53187619D01*
X80684761Y-53187619D02*
X80779999Y-53425714D01*
X80779999Y-53425714D02*
X80827618Y-53473333D01*
X80827618Y-53473333D02*
X80922856Y-53520952D01*
X78875237Y-52520952D02*
X78875237Y-53187619D01*
X79303808Y-52520952D02*
X79303808Y-53044761D01*
X79303808Y-53044761D02*
X79256189Y-53140000D01*
X79256189Y-53140000D02*
X79160951Y-53187619D01*
X79160951Y-53187619D02*
X79018094Y-53187619D01*
X79018094Y-53187619D02*
X78922856Y-53140000D01*
X78922856Y-53140000D02*
X78875237Y-53092380D01*
X77684761Y-52140000D02*
X78541903Y-53425714D01*
X77494284Y-52520952D02*
X77113332Y-52520952D01*
X77351427Y-53187619D02*
X77351427Y-52330476D01*
X77351427Y-52330476D02*
X77303808Y-52235238D01*
X77303808Y-52235238D02*
X77208570Y-52187619D01*
X77208570Y-52187619D02*
X77113332Y-52187619D01*
X76779998Y-53187619D02*
X76779998Y-52520952D01*
X76779998Y-52616190D02*
X76732379Y-52568571D01*
X76732379Y-52568571D02*
X76637141Y-52520952D01*
X76637141Y-52520952D02*
X76494284Y-52520952D01*
X76494284Y-52520952D02*
X76399046Y-52568571D01*
X76399046Y-52568571D02*
X76351427Y-52663809D01*
X76351427Y-52663809D02*
X76351427Y-53187619D01*
X76351427Y-52663809D02*
X76303808Y-52568571D01*
X76303808Y-52568571D02*
X76208570Y-52520952D01*
X76208570Y-52520952D02*
X76065713Y-52520952D01*
X76065713Y-52520952D02*
X75970474Y-52568571D01*
X75970474Y-52568571D02*
X75922855Y-52663809D01*
X75922855Y-52663809D02*
X75922855Y-53187619D01*
X75018094Y-53187619D02*
X75018094Y-52663809D01*
X75018094Y-52663809D02*
X75065713Y-52568571D01*
X75065713Y-52568571D02*
X75160951Y-52520952D01*
X75160951Y-52520952D02*
X75351427Y-52520952D01*
X75351427Y-52520952D02*
X75446665Y-52568571D01*
X75018094Y-53140000D02*
X75113332Y-53187619D01*
X75113332Y-53187619D02*
X75351427Y-53187619D01*
X75351427Y-53187619D02*
X75446665Y-53140000D01*
X75446665Y-53140000D02*
X75494284Y-53044761D01*
X75494284Y-53044761D02*
X75494284Y-52949523D01*
X75494284Y-52949523D02*
X75446665Y-52854285D01*
X75446665Y-52854285D02*
X75351427Y-52806666D01*
X75351427Y-52806666D02*
X75113332Y-52806666D01*
X75113332Y-52806666D02*
X75018094Y-52759047D01*
X74589522Y-53140000D02*
X74494284Y-53187619D01*
X74494284Y-53187619D02*
X74303808Y-53187619D01*
X74303808Y-53187619D02*
X74208570Y-53140000D01*
X74208570Y-53140000D02*
X74160951Y-53044761D01*
X74160951Y-53044761D02*
X74160951Y-52997142D01*
X74160951Y-52997142D02*
X74208570Y-52901904D01*
X74208570Y-52901904D02*
X74303808Y-52854285D01*
X74303808Y-52854285D02*
X74446665Y-52854285D01*
X74446665Y-52854285D02*
X74541903Y-52806666D01*
X74541903Y-52806666D02*
X74589522Y-52711428D01*
X74589522Y-52711428D02*
X74589522Y-52663809D01*
X74589522Y-52663809D02*
X74541903Y-52568571D01*
X74541903Y-52568571D02*
X74446665Y-52520952D01*
X74446665Y-52520952D02*
X74303808Y-52520952D01*
X74303808Y-52520952D02*
X74208570Y-52568571D01*
X73732379Y-53187619D02*
X73732379Y-52187619D01*
X73303808Y-53187619D02*
X73303808Y-52663809D01*
X73303808Y-52663809D02*
X73351427Y-52568571D01*
X73351427Y-52568571D02*
X73446665Y-52520952D01*
X73446665Y-52520952D02*
X73589522Y-52520952D01*
X73589522Y-52520952D02*
X73684760Y-52568571D01*
X73684760Y-52568571D02*
X73732379Y-52616190D01*
X72303808Y-53187619D02*
X72875236Y-53187619D01*
X72589522Y-53187619D02*
X72589522Y-52187619D01*
X72589522Y-52187619D02*
X72684760Y-52330476D01*
X72684760Y-52330476D02*
X72779998Y-52425714D01*
X72779998Y-52425714D02*
X72875236Y-52473333D01*
X71446665Y-52187619D02*
X71637141Y-52187619D01*
X71637141Y-52187619D02*
X71732379Y-52235238D01*
X71732379Y-52235238D02*
X71779998Y-52282857D01*
X71779998Y-52282857D02*
X71875236Y-52425714D01*
X71875236Y-52425714D02*
X71922855Y-52616190D01*
X71922855Y-52616190D02*
X71922855Y-52997142D01*
X71922855Y-52997142D02*
X71875236Y-53092380D01*
X71875236Y-53092380D02*
X71827617Y-53140000D01*
X71827617Y-53140000D02*
X71732379Y-53187619D01*
X71732379Y-53187619D02*
X71541903Y-53187619D01*
X71541903Y-53187619D02*
X71446665Y-53140000D01*
X71446665Y-53140000D02*
X71399046Y-53092380D01*
X71399046Y-53092380D02*
X71351427Y-52997142D01*
X71351427Y-52997142D02*
X71351427Y-52759047D01*
X71351427Y-52759047D02*
X71399046Y-52663809D01*
X71399046Y-52663809D02*
X71446665Y-52616190D01*
X71446665Y-52616190D02*
X71541903Y-52568571D01*
X71541903Y-52568571D02*
X71732379Y-52568571D01*
X71732379Y-52568571D02*
X71827617Y-52616190D01*
X71827617Y-52616190D02*
X71875236Y-52663809D01*
X71875236Y-52663809D02*
X71922855Y-52759047D01*
G36*
X99867833Y-104314815D02*
G01*
X99867833Y-104708619D01*
X98857124Y-105314315D01*
X98653880Y-105434828D01*
X98271600Y-105664576D01*
X98062035Y-105832156D01*
X98031931Y-105978293D01*
X98188029Y-106143709D01*
X98537076Y-106369127D01*
X99085813Y-106695271D01*
X99867833Y-107163981D01*
X99867833Y-108522217D01*
X99867833Y-108531277D01*
X99867833Y-109898572D01*
X96927439Y-109898572D01*
X93987045Y-109898572D01*
X93987045Y-108522217D01*
X95363399Y-108522217D01*
X96927439Y-108522217D01*
X98491478Y-108522217D01*
X98491478Y-108218780D01*
X98456059Y-108054875D01*
X98312933Y-107870246D01*
X98023301Y-107644863D01*
X97548617Y-107342918D01*
X97356074Y-107226694D01*
X96961187Y-106993039D01*
X96676191Y-106831077D01*
X96552731Y-106770493D01*
X96488609Y-106796930D01*
X96258920Y-106921466D01*
X95931553Y-107113671D01*
X95687886Y-107266856D01*
X95470472Y-107453871D01*
X95380882Y-107666133D01*
X95363399Y-107989533D01*
X95363399Y-108522217D01*
X93987045Y-108522217D01*
X93987045Y-106395124D01*
X93987045Y-105018769D01*
X95363399Y-105018769D01*
X95373756Y-105360334D01*
X95407759Y-105654896D01*
X95457242Y-105767403D01*
X95524111Y-105738020D01*
X95764834Y-105604676D01*
X96126596Y-105393334D01*
X96555239Y-105136800D01*
X96996603Y-104867876D01*
X97396530Y-104619368D01*
X97700861Y-104424080D01*
X97855436Y-104314815D01*
X97810074Y-104300494D01*
X97566649Y-104283729D01*
X97158552Y-104272272D01*
X96635485Y-104268030D01*
X95363399Y-104268030D01*
X95363399Y-105018769D01*
X93987045Y-105018769D01*
X93987045Y-102891675D01*
X96927439Y-102891675D01*
X99867833Y-102891675D01*
X99867833Y-103800147D01*
X99867833Y-104314815D01*
G37*
D12*
X141620372Y-113559582D03*
D13*
X146990000Y-114750000D03*
D12*
X152359628Y-115940418D03*
D14*
X145713006Y-120510146D03*
X141286049Y-117377727D03*
D15*
X130775000Y-82500000D03*
X127225000Y-82500000D03*
D12*
X145000000Y-93000000D03*
D13*
X150500000Y-93000000D03*
D12*
X156000000Y-93000000D03*
D14*
X150500000Y-98900000D03*
X145500000Y-96800000D03*
D12*
X145000000Y-76000000D03*
D13*
X150500000Y-76000000D03*
D12*
X156000000Y-76000000D03*
D14*
X150500000Y-81900000D03*
X145500000Y-79800000D03*
D16*
X177900000Y-74375000D03*
X170900000Y-74375000D03*
X177900000Y-76125000D03*
X170900000Y-76125000D03*
D17*
X173100000Y-78225000D03*
X176100000Y-78225000D03*
X167600000Y-74025000D03*
X169100000Y-78225000D03*
D18*
X118000000Y-103500000D03*
D19*
X116000000Y-103500000D03*
D12*
X109000000Y-53000000D03*
D13*
X114500000Y-53000000D03*
D12*
X120000000Y-53000000D03*
D14*
X114500000Y-58900000D03*
X109500000Y-56800000D03*
D15*
X155775000Y-67500000D03*
X152225000Y-67500000D03*
D12*
X72980000Y-61870000D03*
D13*
X78480000Y-61870000D03*
D12*
X83980000Y-61870000D03*
D14*
X78480000Y-67770000D03*
X73480000Y-65670000D03*
D12*
X91000000Y-91000000D03*
D13*
X96500000Y-91000000D03*
D12*
X102000000Y-91000000D03*
D14*
X96500000Y-96900000D03*
X91500000Y-94800000D03*
D12*
X91000000Y-57000000D03*
D13*
X96500000Y-57000000D03*
D12*
X102000000Y-57000000D03*
D14*
X96500000Y-62900000D03*
X91500000Y-60800000D03*
D15*
X148775000Y-67500000D03*
X145225000Y-67500000D03*
X155775000Y-101500000D03*
X152225000Y-101500000D03*
X137775000Y-99500000D03*
X134225000Y-99500000D03*
X152355000Y-84440000D03*
X148805000Y-84440000D03*
X148775000Y-101500000D03*
X145225000Y-101500000D03*
D12*
X127000000Y-91000000D03*
D13*
X132500000Y-91000000D03*
D12*
X138000000Y-91000000D03*
D14*
X132500000Y-96900000D03*
X127500000Y-94800000D03*
D20*
X177580000Y-95500000D03*
X177580000Y-92500000D03*
D12*
X145000000Y-59000000D03*
D13*
X150500000Y-59000000D03*
D12*
X156000000Y-59000000D03*
D14*
X150500000Y-64900000D03*
X145500000Y-62800000D03*
D15*
X124775000Y-104000000D03*
X121225000Y-104000000D03*
D12*
X109000000Y-87000000D03*
D13*
X114500000Y-87000000D03*
D12*
X120000000Y-87000000D03*
D14*
X114500000Y-92900000D03*
X109500000Y-90800000D03*
D15*
X112775000Y-95500000D03*
X109225000Y-95500000D03*
D21*
X168230000Y-51428000D03*
X170770000Y-51428000D03*
X168230000Y-53968000D03*
X170770000Y-53968000D03*
X165055000Y-59683000D03*
X165055000Y-57778000D03*
X173310000Y-69208000D03*
X175215000Y-69208000D03*
D15*
X112775000Y-61500000D03*
X109225000Y-61500000D03*
X119775000Y-95500000D03*
X116225000Y-95500000D03*
X119775000Y-61500000D03*
X116225000Y-61500000D03*
X130775000Y-99500000D03*
X127225000Y-99500000D03*
D12*
X109000000Y-70000000D03*
D13*
X114500000Y-70000000D03*
D12*
X120000000Y-70000000D03*
D14*
X114500000Y-75900000D03*
X109500000Y-73800000D03*
D12*
X169031111Y-115721691D03*
D13*
X167150000Y-120890000D03*
D12*
X165268889Y-126058309D03*
D14*
X161605814Y-118872081D03*
X165289269Y-114891860D03*
D15*
X83775000Y-86500000D03*
X80225000Y-86500000D03*
D12*
X127000000Y-57000000D03*
D13*
X132500000Y-57000000D03*
D12*
X138000000Y-57000000D03*
D14*
X132500000Y-62900000D03*
X127500000Y-60800000D03*
D18*
X177500000Y-86750000D03*
D19*
X175500000Y-86750000D03*
D12*
X115210000Y-112130000D03*
D13*
X120710000Y-112130000D03*
D12*
X126210000Y-112130000D03*
D14*
X120710000Y-118030000D03*
X115710000Y-115930000D03*
D15*
X76775000Y-86500000D03*
X73225000Y-86500000D03*
D12*
X127000000Y-74000000D03*
D13*
X132500000Y-74000000D03*
D12*
X138000000Y-74000000D03*
D14*
X132500000Y-79900000D03*
X127500000Y-77800000D03*
D12*
X72990000Y-95870000D03*
D13*
X78490000Y-95870000D03*
D12*
X83990000Y-95870000D03*
D14*
X78490000Y-101770000D03*
X73490000Y-99670000D03*
D12*
X72990000Y-78870000D03*
D13*
X78490000Y-78870000D03*
D12*
X83990000Y-78870000D03*
D14*
X78490000Y-84770000D03*
X73490000Y-82670000D03*
D15*
X101775000Y-65500000D03*
X98225000Y-65500000D03*
X94775000Y-65500000D03*
X91225000Y-65500000D03*
X137775000Y-82500000D03*
X134225000Y-82500000D03*
D12*
X91000000Y-74000000D03*
D13*
X96500000Y-74000000D03*
D12*
X102000000Y-74000000D03*
D14*
X96500000Y-79900000D03*
X91500000Y-77800000D03*
D22*
X178680000Y-90350000D03*
X176470000Y-90350000D03*
D20*
X177580000Y-92500000D03*
X177580000Y-95500000D03*
D22*
X178680000Y-97650000D03*
X176470000Y-97650000D03*
D23*
X175820000Y-91750000D03*
X175820000Y-94750000D03*
X175820000Y-96250000D03*
D24*
X177594960Y-52380000D03*
X177594960Y-54920000D03*
X177594960Y-57460000D03*
X177594960Y-60000000D03*
X177594960Y-62540000D03*
X177594960Y-65080000D03*
X177594960Y-67620000D03*
X161405040Y-67620000D03*
X161405040Y-65080000D03*
X161405040Y-62540000D03*
X161405040Y-60000000D03*
X161405040Y-57460000D03*
X161405040Y-54920000D03*
X161405040Y-52380000D03*
D21*
X170770000Y-51428000D03*
X168230000Y-51428000D03*
X170770000Y-53968000D03*
X168230000Y-53968000D03*
X173945000Y-59683000D03*
X173945000Y-57778000D03*
X165690000Y-69208000D03*
X163785000Y-69208000D03*
M02*
