%TF.GenerationSoftware,KiCad,Pcbnew,7.0.1*%
%TF.CreationDate,2023-08-18T18:47:56+06:00*%
%TF.ProjectId,pcb,7063622e-6b69-4636-9164-5f7063625858,rev?*%
%TF.SameCoordinates,Original*%
%TF.FileFunction,Profile,NP*%
%FSLAX46Y46*%
G04 Gerber Fmt 4.6, Leading zero omitted, Abs format (unit mm)*
G04 Created by KiCad (PCBNEW 7.0.1) date 2023-08-18 18:47:56*
%MOMM*%
%LPD*%
G01*
G04 APERTURE LIST*
%TA.AperFunction,Profile*%
%ADD10C,0.100000*%
%TD*%
G04 APERTURE END LIST*
D10*
X86618806Y-51759629D02*
G75*
G03*
X87029633Y-51311284I-18806J429629D01*
G01*
X87459956Y-48079956D02*
G75*
G03*
X87029956Y-48509956I44J-430044D01*
G01*
X87029633Y-51311284D02*
X87029956Y-48509956D01*
X86618806Y-51759632D02*
X69532028Y-51744978D01*
X69532028Y-51744978D02*
G75*
G03*
X69102028Y-52174978I44J-430044D01*
G01*
X104977487Y-44337487D02*
X104980589Y-47590589D01*
X104500589Y-48070589D02*
X87459956Y-48079956D01*
X179510000Y-106850000D02*
X181600000Y-107640000D01*
X169672141Y-140470201D02*
X106880000Y-121030000D01*
X179500000Y-48550000D02*
X179510000Y-106850000D01*
X105327487Y-43987487D02*
X123543015Y-44006985D01*
X123961838Y-47528162D02*
G75*
G03*
X124501838Y-48068162I539962J-38D01*
G01*
X169672127Y-140470249D02*
G75*
G03*
X170290477Y-140135782I139973J480049D01*
G01*
X69102028Y-52174978D02*
X69140000Y-104435995D01*
X123963015Y-44426985D02*
X123961838Y-47528162D01*
X123963015Y-44426985D02*
G75*
G03*
X123543015Y-44006985I-420015J-15D01*
G01*
X104500589Y-48070589D02*
G75*
G03*
X104980589Y-47590589I11J479989D01*
G01*
X124501838Y-48068162D02*
X178990000Y-48040000D01*
X179500000Y-48550000D02*
G75*
G03*
X178990000Y-48040000I-510000J0D01*
G01*
X181820000Y-108100000D02*
X170290478Y-140135782D01*
X105327487Y-43987487D02*
G75*
G03*
X104977487Y-44337487I13J-350013D01*
G01*
X181820000Y-108100000D02*
G75*
G03*
X181600000Y-107640000I-340000J120000D01*
G01*
X69140006Y-104435995D02*
G75*
G03*
X69284394Y-104701781I279994J-20005D01*
G01*
X69284394Y-104701781D02*
X106880000Y-121030000D01*
M02*
