%TF.GenerationSoftware,KiCad,Pcbnew,7.0.1*%
%TF.CreationDate,2023-08-18T18:47:56+06:00*%
%TF.ProjectId,pcb,7063622e-6b69-4636-9164-5f7063625858,rev?*%
%TF.SameCoordinates,Original*%
%TF.FileFunction,Soldermask,Top*%
%TF.FilePolarity,Negative*%
%FSLAX46Y46*%
G04 Gerber Fmt 4.6, Leading zero omitted, Abs format (unit mm)*
G04 Created by KiCad (PCBNEW 7.0.1) date 2023-08-18 18:47:56*
%MOMM*%
%LPD*%
G01*
G04 APERTURE LIST*
G04 Aperture macros list*
%AMRoundRect*
0 Rectangle with rounded corners*
0 $1 Rounding radius*
0 $2 $3 $4 $5 $6 $7 $8 $9 X,Y pos of 4 corners*
0 Add a 4 corners polygon primitive as box body*
4,1,4,$2,$3,$4,$5,$6,$7,$8,$9,$2,$3,0*
0 Add four circle primitives for the rounded corners*
1,1,$1+$1,$2,$3*
1,1,$1+$1,$4,$5*
1,1,$1+$1,$6,$7*
1,1,$1+$1,$8,$9*
0 Add four rect primitives between the rounded corners*
20,1,$1+$1,$2,$3,$4,$5,0*
20,1,$1+$1,$4,$5,$6,$7,0*
20,1,$1+$1,$6,$7,$8,$9,0*
20,1,$1+$1,$8,$9,$2,$3,0*%
G04 Aperture macros list end*
%ADD10C,0.500000*%
%ADD11C,0.150000*%
%ADD12C,1.700000*%
%ADD13C,3.400000*%
%ADD14C,2.000000*%
%ADD15R,1.300000X0.950000*%
%ADD16C,1.200000*%
%ADD17O,2.500000X1.700000*%
%ADD18RoundRect,0.250000X0.350000X0.625000X-0.350000X0.625000X-0.350000X-0.625000X0.350000X-0.625000X0*%
%ADD19O,1.200000X1.750000*%
%ADD20R,0.800000X1.000000*%
%ADD21C,0.900000*%
%ADD22R,1.500000X0.700000*%
%ADD23O,2.750000X1.800000*%
%ADD24C,1.397000*%
G04 APERTURE END LIST*
D10*
X169140000Y-88075000D02*
X167470000Y-90225000D01*
X165540000Y-88045000D02*
X169140000Y-88075000D01*
X167470000Y-86325000D02*
X167470000Y-90225000D01*
X166440000Y-86345000D02*
X166440000Y-90245000D01*
D11*
X71360476Y-53130000D02*
X71503333Y-53177619D01*
X71503333Y-53177619D02*
X71741428Y-53177619D01*
X71741428Y-53177619D02*
X71836666Y-53130000D01*
X71836666Y-53130000D02*
X71884285Y-53082380D01*
X71884285Y-53082380D02*
X71931904Y-52987142D01*
X71931904Y-52987142D02*
X71931904Y-52891904D01*
X71931904Y-52891904D02*
X71884285Y-52796666D01*
X71884285Y-52796666D02*
X71836666Y-52749047D01*
X71836666Y-52749047D02*
X71741428Y-52701428D01*
X71741428Y-52701428D02*
X71550952Y-52653809D01*
X71550952Y-52653809D02*
X71455714Y-52606190D01*
X71455714Y-52606190D02*
X71408095Y-52558571D01*
X71408095Y-52558571D02*
X71360476Y-52463333D01*
X71360476Y-52463333D02*
X71360476Y-52368095D01*
X71360476Y-52368095D02*
X71408095Y-52272857D01*
X71408095Y-52272857D02*
X71455714Y-52225238D01*
X71455714Y-52225238D02*
X71550952Y-52177619D01*
X71550952Y-52177619D02*
X71789047Y-52177619D01*
X71789047Y-52177619D02*
X71931904Y-52225238D01*
X72360476Y-53177619D02*
X72360476Y-52177619D01*
X72360476Y-52653809D02*
X72931904Y-52653809D01*
X72931904Y-53177619D02*
X72931904Y-52177619D01*
X73598571Y-52177619D02*
X73789047Y-52177619D01*
X73789047Y-52177619D02*
X73884285Y-52225238D01*
X73884285Y-52225238D02*
X73979523Y-52320476D01*
X73979523Y-52320476D02*
X74027142Y-52510952D01*
X74027142Y-52510952D02*
X74027142Y-52844285D01*
X74027142Y-52844285D02*
X73979523Y-53034761D01*
X73979523Y-53034761D02*
X73884285Y-53130000D01*
X73884285Y-53130000D02*
X73789047Y-53177619D01*
X73789047Y-53177619D02*
X73598571Y-53177619D01*
X73598571Y-53177619D02*
X73503333Y-53130000D01*
X73503333Y-53130000D02*
X73408095Y-53034761D01*
X73408095Y-53034761D02*
X73360476Y-52844285D01*
X73360476Y-52844285D02*
X73360476Y-52510952D01*
X73360476Y-52510952D02*
X73408095Y-52320476D01*
X73408095Y-52320476D02*
X73503333Y-52225238D01*
X73503333Y-52225238D02*
X73598571Y-52177619D01*
X75217619Y-53177619D02*
X75217619Y-52177619D01*
X75217619Y-52558571D02*
X75312857Y-52510952D01*
X75312857Y-52510952D02*
X75503333Y-52510952D01*
X75503333Y-52510952D02*
X75598571Y-52558571D01*
X75598571Y-52558571D02*
X75646190Y-52606190D01*
X75646190Y-52606190D02*
X75693809Y-52701428D01*
X75693809Y-52701428D02*
X75693809Y-52987142D01*
X75693809Y-52987142D02*
X75646190Y-53082380D01*
X75646190Y-53082380D02*
X75598571Y-53130000D01*
X75598571Y-53130000D02*
X75503333Y-53177619D01*
X75503333Y-53177619D02*
X75312857Y-53177619D01*
X75312857Y-53177619D02*
X75217619Y-53130000D01*
X76027143Y-52510952D02*
X76265238Y-53177619D01*
X76503333Y-52510952D02*
X76265238Y-53177619D01*
X76265238Y-53177619D02*
X76170000Y-53415714D01*
X76170000Y-53415714D02*
X76122381Y-53463333D01*
X76122381Y-53463333D02*
X76027143Y-53510952D01*
X78074762Y-52510952D02*
X78074762Y-53177619D01*
X77646191Y-52510952D02*
X77646191Y-53034761D01*
X77646191Y-53034761D02*
X77693810Y-53130000D01*
X77693810Y-53130000D02*
X77789048Y-53177619D01*
X77789048Y-53177619D02*
X77931905Y-53177619D01*
X77931905Y-53177619D02*
X78027143Y-53130000D01*
X78027143Y-53130000D02*
X78074762Y-53082380D01*
X79265238Y-52130000D02*
X78408096Y-53415714D01*
X79455715Y-52510952D02*
X79836667Y-52510952D01*
X79598572Y-53177619D02*
X79598572Y-52320476D01*
X79598572Y-52320476D02*
X79646191Y-52225238D01*
X79646191Y-52225238D02*
X79741429Y-52177619D01*
X79741429Y-52177619D02*
X79836667Y-52177619D01*
X80170001Y-53177619D02*
X80170001Y-52510952D01*
X80170001Y-52606190D02*
X80217620Y-52558571D01*
X80217620Y-52558571D02*
X80312858Y-52510952D01*
X80312858Y-52510952D02*
X80455715Y-52510952D01*
X80455715Y-52510952D02*
X80550953Y-52558571D01*
X80550953Y-52558571D02*
X80598572Y-52653809D01*
X80598572Y-52653809D02*
X80598572Y-53177619D01*
X80598572Y-52653809D02*
X80646191Y-52558571D01*
X80646191Y-52558571D02*
X80741429Y-52510952D01*
X80741429Y-52510952D02*
X80884286Y-52510952D01*
X80884286Y-52510952D02*
X80979525Y-52558571D01*
X80979525Y-52558571D02*
X81027144Y-52653809D01*
X81027144Y-52653809D02*
X81027144Y-53177619D01*
X81931905Y-53177619D02*
X81931905Y-52653809D01*
X81931905Y-52653809D02*
X81884286Y-52558571D01*
X81884286Y-52558571D02*
X81789048Y-52510952D01*
X81789048Y-52510952D02*
X81598572Y-52510952D01*
X81598572Y-52510952D02*
X81503334Y-52558571D01*
X81931905Y-53130000D02*
X81836667Y-53177619D01*
X81836667Y-53177619D02*
X81598572Y-53177619D01*
X81598572Y-53177619D02*
X81503334Y-53130000D01*
X81503334Y-53130000D02*
X81455715Y-53034761D01*
X81455715Y-53034761D02*
X81455715Y-52939523D01*
X81455715Y-52939523D02*
X81503334Y-52844285D01*
X81503334Y-52844285D02*
X81598572Y-52796666D01*
X81598572Y-52796666D02*
X81836667Y-52796666D01*
X81836667Y-52796666D02*
X81931905Y-52749047D01*
X82360477Y-53130000D02*
X82455715Y-53177619D01*
X82455715Y-53177619D02*
X82646191Y-53177619D01*
X82646191Y-53177619D02*
X82741429Y-53130000D01*
X82741429Y-53130000D02*
X82789048Y-53034761D01*
X82789048Y-53034761D02*
X82789048Y-52987142D01*
X82789048Y-52987142D02*
X82741429Y-52891904D01*
X82741429Y-52891904D02*
X82646191Y-52844285D01*
X82646191Y-52844285D02*
X82503334Y-52844285D01*
X82503334Y-52844285D02*
X82408096Y-52796666D01*
X82408096Y-52796666D02*
X82360477Y-52701428D01*
X82360477Y-52701428D02*
X82360477Y-52653809D01*
X82360477Y-52653809D02*
X82408096Y-52558571D01*
X82408096Y-52558571D02*
X82503334Y-52510952D01*
X82503334Y-52510952D02*
X82646191Y-52510952D01*
X82646191Y-52510952D02*
X82741429Y-52558571D01*
X83217620Y-53177619D02*
X83217620Y-52177619D01*
X83646191Y-53177619D02*
X83646191Y-52653809D01*
X83646191Y-52653809D02*
X83598572Y-52558571D01*
X83598572Y-52558571D02*
X83503334Y-52510952D01*
X83503334Y-52510952D02*
X83360477Y-52510952D01*
X83360477Y-52510952D02*
X83265239Y-52558571D01*
X83265239Y-52558571D02*
X83217620Y-52606190D01*
X84646191Y-53177619D02*
X84074763Y-53177619D01*
X84360477Y-53177619D02*
X84360477Y-52177619D01*
X84360477Y-52177619D02*
X84265239Y-52320476D01*
X84265239Y-52320476D02*
X84170001Y-52415714D01*
X84170001Y-52415714D02*
X84074763Y-52463333D01*
X85503334Y-52177619D02*
X85312858Y-52177619D01*
X85312858Y-52177619D02*
X85217620Y-52225238D01*
X85217620Y-52225238D02*
X85170001Y-52272857D01*
X85170001Y-52272857D02*
X85074763Y-52415714D01*
X85074763Y-52415714D02*
X85027144Y-52606190D01*
X85027144Y-52606190D02*
X85027144Y-52987142D01*
X85027144Y-52987142D02*
X85074763Y-53082380D01*
X85074763Y-53082380D02*
X85122382Y-53130000D01*
X85122382Y-53130000D02*
X85217620Y-53177619D01*
X85217620Y-53177619D02*
X85408096Y-53177619D01*
X85408096Y-53177619D02*
X85503334Y-53130000D01*
X85503334Y-53130000D02*
X85550953Y-53082380D01*
X85550953Y-53082380D02*
X85598572Y-52987142D01*
X85598572Y-52987142D02*
X85598572Y-52749047D01*
X85598572Y-52749047D02*
X85550953Y-52653809D01*
X85550953Y-52653809D02*
X85503334Y-52606190D01*
X85503334Y-52606190D02*
X85408096Y-52558571D01*
X85408096Y-52558571D02*
X85217620Y-52558571D01*
X85217620Y-52558571D02*
X85122382Y-52606190D01*
X85122382Y-52606190D02*
X85074763Y-52653809D01*
X85074763Y-52653809D02*
X85027144Y-52749047D01*
G36*
X93982167Y-104314815D02*
G01*
X95994564Y-104314815D01*
X96149139Y-104424080D01*
X96453470Y-104619368D01*
X96853397Y-104867876D01*
X97294761Y-105136800D01*
X97723404Y-105393334D01*
X98085166Y-105604676D01*
X98325889Y-105738020D01*
X98392758Y-105767403D01*
X98442241Y-105654896D01*
X98476244Y-105360334D01*
X98486601Y-105018769D01*
X98486601Y-104268030D01*
X97214515Y-104268030D01*
X96691448Y-104272272D01*
X96283351Y-104283729D01*
X96039926Y-104300494D01*
X95994564Y-104314815D01*
X93982167Y-104314815D01*
X93982167Y-103800147D01*
X93982167Y-102891675D01*
X96922561Y-102891675D01*
X99862955Y-102891675D01*
X99862955Y-106395124D01*
X99862955Y-109898572D01*
X96922561Y-109898572D01*
X93982167Y-109898572D01*
X93982167Y-108531277D01*
X93982167Y-108522217D01*
X93982167Y-108218780D01*
X95358522Y-108218780D01*
X95358522Y-108522217D01*
X96922561Y-108522217D01*
X98486601Y-108522217D01*
X98486601Y-107989533D01*
X98469118Y-107666133D01*
X98379528Y-107453871D01*
X98162114Y-107266856D01*
X97918447Y-107113671D01*
X97591080Y-106921466D01*
X97361391Y-106796930D01*
X97297269Y-106770493D01*
X97173809Y-106831077D01*
X96888813Y-106993039D01*
X96493926Y-107226694D01*
X96301383Y-107342918D01*
X95826699Y-107644863D01*
X95537067Y-107870246D01*
X95393941Y-108054875D01*
X95358522Y-108218780D01*
X93982167Y-108218780D01*
X93982167Y-107163981D01*
X94764187Y-106695271D01*
X95312924Y-106369127D01*
X95661971Y-106143709D01*
X95818069Y-105978293D01*
X95787965Y-105832156D01*
X95578400Y-105664576D01*
X95196120Y-105434828D01*
X94992876Y-105314315D01*
X93982167Y-104708619D01*
X93982167Y-104314815D01*
G37*
D12*
X141620372Y-113559582D03*
D13*
X146990000Y-114750000D03*
D12*
X152359628Y-115940418D03*
D14*
X145713006Y-120510146D03*
X151049010Y-119542123D03*
D15*
X130775000Y-82500000D03*
X127225000Y-82500000D03*
D12*
X145000000Y-93000000D03*
D13*
X150500000Y-93000000D03*
D12*
X156000000Y-93000000D03*
D14*
X150500000Y-98900000D03*
X155500000Y-96800000D03*
D12*
X145000000Y-76000000D03*
D13*
X150500000Y-76000000D03*
D12*
X156000000Y-76000000D03*
D14*
X150500000Y-81900000D03*
X155500000Y-79800000D03*
D16*
X177900000Y-74375000D03*
X170900000Y-74375000D03*
X177900000Y-76125000D03*
X170900000Y-76125000D03*
D17*
X173100000Y-72275000D03*
X176100000Y-72275000D03*
X167600000Y-76475000D03*
X169100000Y-72275000D03*
D18*
X118000000Y-103500000D03*
D19*
X116000000Y-103500000D03*
D12*
X109000000Y-53000000D03*
D13*
X114500000Y-53000000D03*
D12*
X120000000Y-53000000D03*
D14*
X114500000Y-58900000D03*
X119500000Y-56800000D03*
D15*
X155775000Y-67500000D03*
X152225000Y-67500000D03*
D12*
X72980000Y-61870000D03*
D13*
X78480000Y-61870000D03*
D12*
X83980000Y-61870000D03*
D14*
X78480000Y-67770000D03*
X83480000Y-65670000D03*
D12*
X91000000Y-91000000D03*
D13*
X96500000Y-91000000D03*
D12*
X102000000Y-91000000D03*
D14*
X96500000Y-96900000D03*
X101500000Y-94800000D03*
D12*
X91000000Y-57000000D03*
D13*
X96500000Y-57000000D03*
D12*
X102000000Y-57000000D03*
D14*
X96500000Y-62900000D03*
X101500000Y-60800000D03*
D15*
X148775000Y-67500000D03*
X145225000Y-67500000D03*
X155775000Y-101500000D03*
X152225000Y-101500000D03*
X137775000Y-99500000D03*
X134225000Y-99500000D03*
X152355000Y-84440000D03*
X148805000Y-84440000D03*
X148775000Y-101500000D03*
X145225000Y-101500000D03*
D12*
X127000000Y-91000000D03*
D13*
X132500000Y-91000000D03*
D12*
X138000000Y-91000000D03*
D14*
X132500000Y-96900000D03*
X137500000Y-94800000D03*
D20*
X176470000Y-97650000D03*
X178680000Y-97650000D03*
D21*
X177580000Y-95500000D03*
X177580000Y-92500000D03*
D20*
X176470000Y-90350000D03*
X178680000Y-90350000D03*
D22*
X175820000Y-96250000D03*
X175820000Y-93250000D03*
X175820000Y-91750000D03*
D12*
X145000000Y-59000000D03*
D13*
X150500000Y-59000000D03*
D12*
X156000000Y-59000000D03*
D14*
X150500000Y-64900000D03*
X155500000Y-62800000D03*
D15*
X124775000Y-104000000D03*
X121225000Y-104000000D03*
D12*
X109000000Y-87000000D03*
D13*
X114500000Y-87000000D03*
D12*
X120000000Y-87000000D03*
D14*
X114500000Y-92900000D03*
X119500000Y-90800000D03*
D15*
X112775000Y-95500000D03*
X109225000Y-95500000D03*
D23*
X161405040Y-52380000D03*
X161405040Y-54920000D03*
X161405040Y-57460000D03*
X161405040Y-60000000D03*
X161405040Y-62540000D03*
X161405040Y-65080000D03*
X161405040Y-67620000D03*
X177594960Y-67620000D03*
X177594960Y-65080000D03*
X177594960Y-62540000D03*
X177594960Y-60000000D03*
X177594960Y-57460000D03*
X177594960Y-54920000D03*
X177594960Y-52380000D03*
D24*
X168230000Y-51428000D03*
X170770000Y-51428000D03*
X168230000Y-53968000D03*
X170770000Y-53968000D03*
X165055000Y-59683000D03*
X165055000Y-57778000D03*
X173310000Y-69208000D03*
X175215000Y-69208000D03*
D15*
X112775000Y-61500000D03*
X109225000Y-61500000D03*
X119775000Y-95500000D03*
X116225000Y-95500000D03*
X119775000Y-61500000D03*
X116225000Y-61500000D03*
X130775000Y-99500000D03*
X127225000Y-99500000D03*
D12*
X109000000Y-70000000D03*
D13*
X114500000Y-70000000D03*
D12*
X120000000Y-70000000D03*
D14*
X114500000Y-75900000D03*
X119500000Y-73800000D03*
D12*
X169031111Y-115721691D03*
D13*
X167150000Y-120890000D03*
D12*
X165268889Y-126058309D03*
D14*
X161605814Y-118872081D03*
X161869067Y-124288787D03*
D15*
X83775000Y-86500000D03*
X80225000Y-86500000D03*
D12*
X127000000Y-57000000D03*
D13*
X132500000Y-57000000D03*
D12*
X138000000Y-57000000D03*
D14*
X132500000Y-62900000D03*
X137500000Y-60800000D03*
D18*
X177500000Y-86750000D03*
D19*
X175500000Y-86750000D03*
D12*
X115210000Y-112130000D03*
D13*
X120710000Y-112130000D03*
D12*
X126210000Y-112130000D03*
D14*
X120710000Y-118030000D03*
X125710000Y-115930000D03*
D15*
X76775000Y-86500000D03*
X73225000Y-86500000D03*
D12*
X127000000Y-74000000D03*
D13*
X132500000Y-74000000D03*
D12*
X138000000Y-74000000D03*
D14*
X132500000Y-79900000D03*
X137500000Y-77800000D03*
D12*
X72990000Y-95870000D03*
D13*
X78490000Y-95870000D03*
D12*
X83990000Y-95870000D03*
D14*
X78490000Y-101770000D03*
X83490000Y-99670000D03*
D12*
X72990000Y-78870000D03*
D13*
X78490000Y-78870000D03*
D12*
X83990000Y-78870000D03*
D14*
X78490000Y-84770000D03*
X83490000Y-82670000D03*
D15*
X101775000Y-65500000D03*
X98225000Y-65500000D03*
X94775000Y-65500000D03*
X91225000Y-65500000D03*
X137775000Y-82500000D03*
X134225000Y-82500000D03*
D12*
X91000000Y-74000000D03*
D13*
X96500000Y-74000000D03*
D12*
X102000000Y-74000000D03*
D14*
X96500000Y-79900000D03*
X101500000Y-77800000D03*
D21*
X177580000Y-92500000D03*
X177580000Y-95500000D03*
D24*
X170770000Y-51428000D03*
X168230000Y-51428000D03*
X170770000Y-53968000D03*
X168230000Y-53968000D03*
X173945000Y-59683000D03*
X173945000Y-57778000D03*
X165690000Y-69208000D03*
X163785000Y-69208000D03*
M02*
