M48
; DRILL file {KiCad 7.0.1} date Fri 18 Aug 2023 06:47:52 PM +06
; FORMAT={-:-/ absolute / inch / decimal}
; #@! TF.CreationDate,2023-08-18T18:47:52+06:00
; #@! TF.GenerationSoftware,Kicad,Pcbnew,7.0.1
; #@! TF.FileFunction,Plated,1,2,PTH
FMAT,2
INCH
; #@! TA.AperFunction,Plated,PTH,ViaDrill
T1C0.0157
; #@! TA.AperFunction,Plated,PTH,ComponentDrill
T2C0.0295
; #@! TA.AperFunction,Plated,PTH,ComponentDrill
T3C0.0394
; #@! TA.AperFunction,Plated,PTH,ComponentDrill
T4C0.0400
; #@! TA.AperFunction,Plated,PTH,ComponentDrill
T5C0.0472
%
G90
G05
T1
X2.8829Y-3.4055
X3.0226Y-3.4055
X3.1585Y-3.4055
X3.2982Y-3.4055
X3.5915Y-2.5787
X3.7313Y-2.5787
X3.8671Y-2.5787
X4.0069Y-2.5787
X4.3002Y-2.4213
X4.44Y-2.4213
X4.44Y-3.7598
X4.5758Y-2.4213
X4.5758Y-3.7598
X4.7156Y-2.4213
X4.7156Y-3.7598
X4.7726Y-4.0945
X4.9124Y-4.0945
X5.0089Y-3.248
X5.0089Y-3.9173
X5.1486Y-3.248
X5.1486Y-3.9173
X5.2844Y-3.248
X5.2844Y-3.9173
X5.4242Y-3.248
X5.4242Y-3.9173
X5.6083Y-4.1059
X5.7175Y-2.6575
X5.7175Y-3.9961
X5.8573Y-2.6575
X5.8573Y-3.9961
X5.8575Y-3.324
X5.9573Y-4.1929
X5.9931Y-2.6575
X5.9931Y-3.9961
X5.9972Y-3.3248
X6.1329Y-2.6575
X6.1329Y-3.9961
X6.2425Y-4.1398
X6.2516Y-3.8508
X6.4464Y-2.4021
X6.4469Y-2.0669
X6.4469Y-2.165
X6.4469Y-2.2146
X6.4469Y-2.4902
X6.4469Y-2.5886
X6.4469Y-2.6673
X6.7201Y-3.2209
X6.8709Y-3.915
X6.8996Y-2.2539
X6.8996Y-2.3622
X6.8996Y-2.4409
X6.8996Y-2.5394
X6.8996Y-2.628
X6.9193Y-3.6713
X6.922Y-3.6122
T2
X4.5669Y-4.0748
X4.6457Y-4.0748
X6.9094Y-3.4154
X6.9882Y-3.4154
T4
X6.4482Y-2.7247
X6.4982Y-2.2747
X6.4982Y-2.3497
X6.5232Y-2.7247
X6.6232Y-2.0247
X6.6232Y-2.0247
X6.6232Y-2.1247
X6.6232Y-2.1247
X6.7232Y-2.0247
X6.7232Y-2.0247
X6.7232Y-2.1247
X6.7232Y-2.1247
X6.8232Y-2.7247
X6.8482Y-2.2747
X6.8482Y-2.3497
X6.8982Y-2.7247
T5
X2.8929Y-2.5854
X2.8933Y-3.2547
X2.8933Y-3.924
X3.0898Y-2.6681
X3.0902Y-3.3374
X3.0902Y-4.0067
X3.2866Y-2.5854
X3.287Y-3.2547
X3.287Y-3.924
X3.6024Y-2.3937
X3.6024Y-3.063
X3.6024Y-3.7323
X3.7992Y-2.4764
X3.7992Y-3.1457
X3.7992Y-3.815
X3.9961Y-2.3937
X3.9961Y-3.063
X3.9961Y-3.7323
X4.311Y-2.2362
X4.311Y-2.9055
X4.311Y-3.5748
X4.5079Y-2.3189
X4.5079Y-2.9882
X4.5079Y-3.6575
X4.5555Y-4.5642
X4.7047Y-2.2362
X4.7047Y-2.9055
X4.7047Y-3.5748
X4.7524Y-4.6469
X4.9492Y-4.5642
X5.0197Y-2.3937
X5.0197Y-3.063
X5.0197Y-3.7323
X5.2165Y-2.4764
X5.2165Y-3.1457
X5.2165Y-3.815
X5.4134Y-2.3937
X5.4134Y-3.063
X5.4134Y-3.7323
X5.5624Y-4.6212
X5.7283Y-2.4724
X5.7283Y-3.1417
X5.7283Y-3.811
X5.7367Y-4.7445
X5.9252Y-2.5551
X5.9252Y-3.2244
X5.9252Y-3.8937
X5.9468Y-4.7064
X6.122Y-2.4724
X6.122Y-3.1417
X6.122Y-3.811
X6.3624Y-4.68
X6.3728Y-4.8933
X6.5075Y-4.5233
T3
G00X6.6083Y-2.9144
M15
G01X6.5886Y-2.9144
M16
G05
G00X6.6083Y-3.0108
M15
G01X6.5886Y-3.0108
M16
G05
G00X6.6673Y-2.8455
M15
G01X6.6476Y-2.8455
M16
G05
G00X6.6673Y-3.0797
M15
G01X6.6476Y-3.0797
M16
G05
G00X6.8248Y-2.8455
M15
G01X6.8051Y-2.8455
M16
G05
G00X6.8248Y-3.0797
M15
G01X6.8051Y-3.0797
M16
G05
G00X6.9429Y-2.8455
M15
G01X6.9232Y-2.8455
M16
G05
G00X6.9232Y-3.0797
M15
G01X6.9429Y-3.0797
M16
G05
T0
M30
